<svg width="96" height="96" viewBox="0 0 96 96" fill="none" xmlns="http://www.w3.org/2000/svg">
<path fill-rule="evenodd" clip-rule="evenodd" d="M46.6098 18C32.4876 18 21 29.3351 21 43.3659C21 52.0923 26.0889 60.705 31.4823 66.9743C34.2116 70.1469 37.1084 72.8254 39.6636 74.7302C40.9392 75.6811 42.1652 76.4658 43.2718 77.0231C44.3092 77.5456 45.4939 78 46.6098 78C47.7256 78 48.9103 77.5456 49.9477 77.0231C51.0543 76.4658 52.2803 75.6811 53.5559 74.7302C56.1111 72.8254 59.0079 70.1469 61.7373 66.9743C67.1306 60.705 72.2195 52.0923 72.2195 43.3659C72.2195 29.3351 60.7319 18 46.6098 18Z" fill="#404040"/>
<path d="M51.0222 33L46.8797 49.4785H46.1206L41.9782 33H33V54H37.7694V37.543H38.5338L42.6092 54H50.3911L54.4719 37.5212H55.2306V54H60V33H56.3062H51.0222Z" fill="white"/>
</svg>
