<svg width="52" height="60" viewBox="0 0 52 60" fill="none" xmlns="http://www.w3.org/2000/svg">
<path fill-rule="evenodd" clip-rule="evenodd" d="M25.6098 0C11.4876 0 0 11.3351 0 25.3659C0 34.0923 5.08894 42.705 10.4823 48.9743C13.2116 52.1469 16.1084 54.8254 18.6636 56.7302C19.9392 57.6811 21.1652 58.4658 22.2718 59.0231C23.3092 59.5456 24.4939 60 25.6098 60C26.7256 60 27.9103 59.5456 28.9477 59.0231C30.0543 58.4658 31.2803 57.6811 32.5559 56.7302C35.1111 54.8254 38.0079 52.1469 40.7373 48.9743C46.1306 42.705 51.2195 34.0923 51.2195 25.3659C51.2195 11.3351 39.7319 0 25.6098 0Z" fill="#404040"/>
</svg>
